<svg width="160.633" height="45" viewBox="0 0 1103 309" fill="none" xmlns="http://www.w3.org/2000/svg">
<path d="M355.529 279.555H358.727V29.7947H355.529V279.555Z" fill="#ffffff"/>
<path d="M411.803 95.0959H419.954C426.449 95.0959 429.697 92.5773 429.697 87.5413C429.697 84.6239 428.779 82.5266 426.946 81.2453C425.113 79.9639 422.341 79.3239 418.63 79.3239H411.803V95.0959ZM411.803 74.2879H418.165C420.153 74.2879 421.831 74.0879 423.202 73.6906C424.57 73.2919 425.675 72.7399 426.515 72.0333C427.354 71.3279 427.962 70.4759 428.337 69.4826C428.713 68.4879 428.901 67.4173 428.901 66.2679C428.901 64.1919 428.171 62.6013 426.714 61.4973C425.257 60.3933 422.738 59.8399 419.159 59.8399H411.803V74.2879ZM405.838 100.663V54.2733H419.954C422.649 54.2733 424.946 54.5506 426.847 55.1013C428.746 55.6546 430.293 56.4506 431.486 57.4879C432.678 58.5253 433.541 59.7639 434.07 61.1986C434.599 62.6346 434.865 64.2146 434.865 65.9373C434.865 68.6773 434.114 70.9626 432.613 72.7946C431.11 74.6293 428.901 75.8546 425.986 76.4733V76.6066C429.298 77.0933 431.805 78.3186 433.507 80.2853C435.207 82.2506 436.058 84.6479 436.058 87.4746C436.058 89.1973 435.749 90.8533 435.131 92.4453C434.511 94.0346 433.541 95.4386 432.214 96.6533C430.889 97.8679 429.187 98.8399 427.111 99.5679C425.035 100.297 422.515 100.663 419.557 100.663H405.838Z" fill="#ffffff"/>
<path d="M487.747 100.662H481.783V79.3237H458.325V100.662H452.359V54.273H458.325V73.889H481.783V54.273H487.747V100.662Z" fill="#ffffff"/>
<path d="M541.558 100.662H535.594V63.2864L513.062 100.662H506.304V54.273H512.268V91.649L534.798 54.273H541.558V100.662Z" fill="#ffffff"/>
<path d="M593.977 100.662H588.013V59.8397H566.077V100.662H560.114V54.273H593.977V100.662Z" fill="#ffffff"/>
<path d="M647.788 100.662H641.824V63.2864L619.292 100.662H612.532V54.273H618.498V91.649L641.03 54.273H647.788V100.662Z" fill="#ffffff"/>
<path d="M439.703 180.186H433.738V139.363H411.803V180.186H405.839V133.796H439.703V180.186Z" fill="#ffffff"/>
<path d="M464.222 157.522H471.38C475.091 157.522 477.907 156.771 479.83 155.268C481.751 153.767 482.712 151.47 482.712 148.376C482.712 145.195 481.751 142.898 479.83 141.484C477.907 140.071 475.091 139.363 471.38 139.363H464.222V157.522ZM464.222 180.186H458.258V133.796H471.91C474.56 133.796 476.935 134.074 479.034 134.624C481.131 135.178 482.932 136.05 484.435 137.243C485.936 138.436 487.086 139.938 487.88 141.75C488.675 143.56 489.074 145.724 489.074 148.243C489.074 153.059 487.516 156.738 484.402 159.276C481.286 161.819 476.946 163.088 471.38 163.088H464.222V180.186Z" fill="#ffffff"/>
<path d="M523.931 175.282C528.304 175.282 531.739 173.747 534.236 170.677C536.731 167.606 537.98 163.045 537.98 156.991C537.98 153.81 537.636 151.071 536.954 148.774C536.267 146.477 535.286 144.577 534.003 143.075C532.722 141.573 531.164 140.469 529.331 139.761C527.498 139.054 525.431 138.699 523.136 138.699C521.103 138.699 519.203 139.077 517.436 139.827C515.67 140.579 514.144 141.705 512.864 143.206C511.582 144.709 510.566 146.61 509.815 148.906C509.064 151.203 508.688 153.899 508.688 156.991C508.688 160.039 509.054 162.713 509.782 165.01C510.511 167.309 511.538 169.218 512.864 170.742C514.188 172.266 515.791 173.405 517.668 174.155C519.546 174.907 521.632 175.282 523.931 175.282ZM523.335 180.849C520.108 180.849 517.204 180.295 514.62 179.193C512.036 178.087 509.826 176.507 507.992 174.454C506.159 172.399 504.756 169.893 503.786 166.931C502.812 163.973 502.326 160.658 502.326 156.991C502.326 153.279 502.835 149.957 503.851 147.018C504.867 144.081 506.292 141.583 508.126 139.53C509.959 137.475 512.156 135.895 514.719 134.791C517.282 133.687 520.087 133.134 523.136 133.134C526.582 133.134 529.619 133.719 532.247 134.89C534.875 136.061 537.086 137.697 538.875 139.794C540.664 141.893 542.022 144.411 542.95 147.349C543.878 150.287 544.343 153.502 544.343 156.991C544.343 160.923 543.811 164.379 542.752 167.363C541.691 170.345 540.234 172.83 538.378 174.817C536.522 176.806 534.312 178.309 531.751 179.323C529.187 180.339 526.383 180.849 523.335 180.849Z" fill="#ffffff"/>
<path d="M606.237 180.186H600.273L597.424 143.936L585.693 180.186H579.464L567.801 144.068L564.885 180.186H558.92L562.897 133.796H570.187L582.712 173.691L594.972 133.796H602.263L606.237 180.186Z" fill="#ffffff"/>
<path d="M637.849 180.186H631.885V139.363H618.166V133.796H651.566V139.363H637.849V180.186Z" fill="#ffffff"/>
<path d="M691.393 180.186H665.481V133.796H691.393V139.363H671.447V153.412H689.671V158.847H671.447V174.619H691.393V180.186Z" fill="#ffffff"/>
<path d="M734.602 180.186L722.54 160.503L710.412 180.186H703.123L718.83 156.063L704.647 133.796H711.936L722.674 152.02L733.872 133.796H740.764L726.518 155.931L742.288 180.186H734.602Z" fill="#ffffff"/>
<path d="M791.063 180.186H785.097V158.847H761.639V180.186H755.675V133.796H761.639V153.412H785.097V133.796H791.063V180.186Z" fill="#ffffff"/>
<path d="M829.234 175.282C833.608 175.282 837.042 173.747 839.54 170.677C842.036 167.606 843.284 163.045 843.284 156.991C843.284 153.81 842.941 151.071 842.257 148.774C841.57 146.477 840.588 144.577 839.308 143.075C838.025 141.573 836.468 140.469 834.636 139.761C832.801 139.054 830.736 138.699 828.438 138.699C826.406 138.699 824.506 139.077 822.74 139.827C820.972 140.579 819.448 141.705 818.166 143.206C816.885 144.709 815.87 146.61 815.12 148.906C814.366 151.203 813.992 153.899 813.992 156.991C813.992 160.039 814.357 162.713 815.086 165.01C815.814 167.309 816.842 169.218 818.166 170.742C819.492 172.266 821.093 173.405 822.972 174.155C824.849 174.907 826.937 175.282 829.234 175.282ZM828.637 180.849C825.413 180.849 822.508 180.295 819.924 179.193C817.338 178.087 815.129 176.507 813.297 174.454C811.462 172.399 810.06 169.893 809.088 166.931C808.116 163.973 807.63 160.658 807.63 156.991C807.63 153.279 808.137 149.957 809.154 147.018C810.17 144.081 811.594 141.583 813.429 139.53C815.261 137.475 817.46 135.895 820.022 134.791C822.585 133.687 825.39 133.134 828.438 133.134C831.885 133.134 834.922 133.719 837.552 134.89C840.18 136.061 842.389 137.697 844.178 139.794C845.966 141.893 847.325 144.411 848.253 147.349C849.181 150.287 849.646 153.502 849.646 156.991C849.646 160.923 849.114 164.379 848.054 167.363C846.994 170.345 845.537 172.83 843.681 174.817C841.825 176.806 839.616 178.309 837.054 179.323C834.492 180.339 831.686 180.849 828.637 180.849Z" fill="#ffffff"/>
<path d="M899.481 180.186H893.515V139.363H877.611C877.567 145.991 877.413 151.879 877.147 157.024C876.882 162.171 876.319 166.5 875.458 170.014C874.597 173.526 873.325 176.188 871.647 177.998C869.967 179.811 867.714 180.715 864.887 180.715C864.269 180.715 863.782 180.683 863.43 180.616C863.075 180.55 862.677 180.451 862.237 180.319V174.552C862.59 174.642 862.909 174.696 863.198 174.718C863.485 174.742 863.805 174.752 864.158 174.752C865.351 174.752 866.401 174.276 867.307 173.326C868.211 172.378 868.963 170.6 869.559 167.991C870.157 165.386 870.619 161.774 870.951 157.158C871.282 152.542 871.491 146.544 871.581 139.164L871.647 133.796H899.481V180.186Z" fill="#ffffff"/>
<path d="M937.651 175.282C942.025 175.282 945.459 173.747 947.957 170.677C950.453 167.606 951.701 163.045 951.701 156.991C951.701 153.81 951.358 151.071 950.674 148.774C949.987 146.477 949.005 144.577 947.725 143.075C946.442 141.573 944.885 140.469 943.053 139.761C941.218 139.054 939.153 138.699 936.857 138.699C934.823 138.699 932.923 139.077 931.157 139.827C929.39 140.579 927.865 141.705 926.585 143.206C925.302 144.709 924.286 146.61 923.537 148.906C922.785 151.203 922.409 153.899 922.409 156.991C922.409 160.039 922.774 162.713 923.503 165.01C924.231 167.309 925.259 169.218 926.585 170.742C927.909 172.266 929.51 173.405 931.389 174.155C933.266 174.907 935.353 175.282 937.651 175.282ZM937.054 180.849C933.83 180.849 930.925 180.295 928.341 179.193C925.757 178.087 923.546 176.507 921.714 174.454C919.879 172.399 918.477 169.893 917.505 166.931C916.533 163.973 916.047 160.658 916.047 156.991C916.047 153.279 916.554 149.957 917.571 147.018C918.587 144.081 920.013 141.583 921.846 139.53C923.679 137.475 925.877 135.895 928.439 134.791C931.002 133.687 933.807 133.134 936.857 133.134C940.302 133.134 943.339 133.719 945.969 134.89C948.597 136.061 950.806 137.697 952.595 139.794C954.385 141.893 955.742 144.411 956.67 147.349C957.598 150.287 958.063 153.502 958.063 156.991C958.063 160.923 957.531 164.379 956.471 167.363C955.411 170.345 953.954 172.83 952.098 174.817C950.242 176.806 948.033 178.309 945.471 179.323C942.909 180.339 940.103 180.849 937.054 180.849Z" fill="#ffffff"/>
<path d="M980.593 180.186H974.629V133.796H999.216V139.363H980.593V180.186Z" fill="#ffffff"/>
<path d="M1048.39 180.186H1042.42V142.81L1019.89 180.186H1013.13V133.796H1019.1V171.172L1041.63 133.796H1048.39V180.186Z" fill="#ffffff"/>
<path d="M1102.2 180.186H1096.23V142.81L1073.7 180.186H1066.94V133.796H1072.91V171.172L1095.44 133.796H1102.2V180.186Z" fill="#ffffff"/>
<path d="M410.65 246.197H416.425C419.418 246.197 421.69 245.592 423.241 244.38C424.79 243.169 425.567 241.316 425.567 238.82C425.567 236.253 424.79 234.401 423.241 233.26C421.69 232.12 419.418 231.549 416.425 231.549H410.65V246.197ZM410.65 264.481H405.838V227.058H416.851C418.99 227.058 420.905 227.281 422.599 227.726C424.29 228.172 425.745 228.877 426.955 229.837C428.167 230.8 429.094 232.013 429.735 233.474C430.378 234.936 430.698 236.682 430.698 238.713C430.698 242.598 429.442 245.565 426.929 247.614C424.417 249.664 420.915 250.689 416.425 250.689H410.65V264.481Z" fill="#ffffff"/>
<path d="M458.284 260.525C461.812 260.525 464.583 259.286 466.599 256.81C468.611 254.333 469.618 250.653 469.618 245.77C469.618 243.202 469.342 240.994 468.788 239.141C468.236 237.288 467.446 235.754 466.411 234.544C465.376 233.332 464.12 232.44 462.642 231.87C461.162 231.3 459.496 231.014 457.643 231.014C456.004 231.014 454.471 231.317 453.044 231.922C451.619 232.529 450.391 233.438 449.356 234.649C448.322 235.861 447.503 237.394 446.898 239.248C446.29 241.102 445.988 243.274 445.988 245.77C445.988 248.229 446.283 250.386 446.87 252.238C447.459 254.092 448.287 255.634 449.356 256.864C450.426 258.092 451.718 259.01 453.232 259.616C454.747 260.224 456.431 260.525 458.284 260.525ZM457.804 265.017C455.202 265.017 452.858 264.57 450.775 263.678C448.688 262.789 446.906 261.514 445.427 259.857C443.948 258.2 442.815 256.177 442.032 253.789C441.248 251.401 440.856 248.729 440.856 245.77C440.856 242.776 441.266 240.094 442.087 237.724C442.906 235.354 444.055 233.34 445.534 231.682C447.014 230.025 448.784 228.75 450.854 227.86C452.919 226.969 455.184 226.524 457.643 226.524C460.423 226.524 462.874 226.997 464.994 227.94C467.114 228.885 468.898 230.205 470.34 231.896C471.783 233.59 472.879 235.621 473.628 237.99C474.378 240.362 474.751 242.954 474.751 245.77C474.751 248.942 474.323 251.732 473.468 254.136C472.612 256.542 471.436 258.548 469.94 260.152C468.442 261.754 466.66 262.968 464.592 263.786C462.526 264.605 460.263 265.017 457.804 265.017Z" fill="#ffffff"/>
<path d="M512.816 263.465C511.782 263.965 510.57 264.348 509.179 264.616C507.788 264.882 506.275 265.017 504.635 265.017C501.714 265.017 499.103 264.578 496.804 263.706C494.506 262.833 492.555 261.577 490.951 259.937C489.344 258.298 488.118 256.328 487.262 254.029C486.404 251.732 485.978 249.138 485.978 246.25C485.978 243.078 486.404 240.264 487.262 237.804C488.118 235.344 489.344 233.278 490.951 231.602C492.555 229.928 494.486 228.661 496.751 227.806C499.014 226.952 501.536 226.524 504.316 226.524C506.454 226.524 508.191 226.676 509.527 226.977C510.866 227.281 511.978 227.61 512.87 227.966L511.959 232.19C510.783 231.762 509.59 231.461 508.379 231.281C507.167 231.104 505.972 231.014 504.796 231.014C500.34 231.014 496.947 232.262 494.612 234.756C492.278 237.25 491.11 240.924 491.11 245.77C491.11 248.085 491.44 250.162 492.099 251.998C492.759 253.834 493.694 255.384 494.906 256.648C496.118 257.914 497.595 258.877 499.344 259.536C501.088 260.196 503.068 260.525 505.278 260.525C506.454 260.525 507.638 260.418 508.832 260.205C510.026 259.99 511.087 259.652 512.014 259.188L512.816 263.465Z" fill="#ffffff"/>
<path d="M532.006 250.099H544.89L538.636 232.511H538.422L532.006 250.099ZM546.44 254.483H530.456L526.821 264.482H521.956L536.23 227.058H541.041L555.048 264.482H550.024L546.44 254.483Z" fill="#ffffff"/>
<path d="M574.669 264.481H569.859V231.549H558.791V227.057H585.736V231.549H574.669V264.481Z" fill="#ffffff"/>
<path d="M611.184 260.525C614.714 260.525 617.484 259.286 619.499 256.81C621.512 254.333 622.518 250.653 622.518 245.77C622.518 243.202 622.243 240.994 621.69 239.141C621.136 237.288 620.346 235.754 619.311 234.544C618.276 233.332 617.02 232.44 615.543 231.87C614.063 231.3 612.398 231.014 610.543 231.014C608.904 231.014 607.371 231.317 605.946 231.922C604.52 232.529 603.291 233.438 602.256 234.649C601.223 235.861 600.404 237.394 599.798 239.248C599.191 241.102 598.89 243.274 598.89 245.77C598.89 248.229 599.183 250.386 599.77 252.238C600.359 254.092 601.188 255.634 602.256 256.864C603.327 258.092 604.618 259.01 606.132 259.616C607.647 260.224 609.331 260.525 611.184 260.525ZM610.706 265.017C608.103 265.017 605.759 264.57 603.675 263.678C601.59 262.789 599.807 261.514 598.328 259.857C596.848 258.2 595.716 256.177 594.934 253.789C594.148 251.401 593.756 248.729 593.756 245.77C593.756 242.776 594.166 240.094 594.987 237.724C595.806 235.354 596.956 233.34 598.434 231.682C599.914 230.025 601.686 228.75 603.755 227.86C605.82 226.969 608.084 226.524 610.543 226.524C613.323 226.524 615.774 226.997 617.895 227.94C620.015 228.885 621.798 230.205 623.242 231.896C624.684 233.59 625.78 235.621 626.53 237.99C627.278 240.362 627.652 242.954 627.652 245.77C627.652 248.942 627.224 251.732 626.37 254.136C625.512 256.542 624.336 258.548 622.84 260.152C621.343 261.754 619.56 262.968 617.494 263.786C615.427 264.605 613.163 265.017 610.706 265.017Z" fill="#ffffff"/>
<path d="M677.049 264.481H672.24L669.939 235.237L660.476 264.481H655.451L646.04 235.344L643.691 264.481H638.877L642.085 227.057H647.965L658.072 259.243L667.961 227.057H673.841L677.049 264.481Z" fill="#ffffff"/>
<path d="M131.41 133.185C119.473 146.427 120.49 166.888 133.696 178.876C146.9 190.865 167.286 189.859 179.242 176.62C191.186 163.377 190.169 142.925 176.969 130.936C170.79 125.328 163.04 122.561 155.313 122.561C146.528 122.561 137.773 126.14 131.41 133.185Z" fill="#ffffff"/>
<path d="M62.9209 31.3056C110.396 8.29361 143.289 24.1682 163.728 44.2589C166.434 46.9176 168.924 49.6389 171.198 52.3522C184.18 67.9029 190.242 83.1803 190.242 83.1803C198.525 84.7163 206.262 85.1403 213.473 84.7856C213.941 84.7576 214.376 84.7576 214.848 84.7256C215.278 84.6883 215.678 84.6349 216.109 84.6016C232.074 83.1616 252.82 77.0403 271.781 58.0349C272.43 57.3816 273.078 56.6883 273.729 56.0043C270.793 52.5029 267.766 49.047 264.482 45.7496C234.298 15.6643 194.832 0.625631 155.37 0.624298C122.818 0.624298 90.2729 10.8509 62.9209 31.3056" fill="#ffffff"/>
<path d="M5.26245 113.148C-14.7415 188.303 24.0918 265.152 93.5318 294.931C49.8678 265.318 47.1664 228.896 54.3491 201.154C55.2998 197.48 56.4144 193.964 57.6251 190.636C64.6051 171.62 74.8011 158.728 74.8011 158.728C71.9891 150.787 68.4851 143.875 64.5771 137.811C64.3158 137.419 64.0958 137.042 63.8304 136.644C63.5918 136.294 63.3424 135.97 63.0958 135.618C53.8744 122.511 38.1971 107.607 12.2558 100.69C11.3651 100.452 10.4384 100.242 9.52112 100.019C7.95845 104.31 6.48112 108.656 5.26245 113.148" fill="#ffffff"/>
<path d="M245.274 217.6C241.624 218.618 238.018 219.408 234.533 220.027C214.573 223.49 198.309 221.11 198.309 221.11C192.837 227.506 188.605 234 185.308 240.42C185.096 240.838 184.88 241.216 184.669 241.644C184.485 242.035 184.33 242.406 184.146 242.794C177.409 257.342 172.34 278.364 179.321 304.288C179.556 305.176 179.836 306.086 180.106 306.994C184.605 306.203 189.109 305.304 193.609 304.112C268.693 283.864 315.828 211.803 306.898 136.778C303.082 189.4 272.898 209.951 245.274 217.6Z" fill="#ffffff"/>
<path d="M62.921 31.3055C62.921 31.3055 29.4037 52.2935 11.8877 94.4294C16.4784 95.2294 63.225 104.654 80.653 156.611C84.909 153.895 97.985 143.564 106.773 115.101C117.394 80.6935 137.566 55.3068 163.728 44.2588C163.728 44.2588 145.889 18.8361 109.654 18.8361C96.5077 18.8361 80.9383 22.1828 62.921 31.3055" fill="#ffffff"/>
<path d="M93.5317 294.931C93.5317 294.931 128.417 313.437 173.616 307.577C172.8 305.324 169.13 294.343 169.125 279.032C169.116 261.591 173.956 238.504 193.329 216.756L193.544 216.42C190.374 213.041 179.312 204.716 150.84 211.204C115.734 219.212 76.9984 218.283 54.3491 201.153C54.3491 201.153 30.0277 253.452 93.5317 294.931Z" fill="#ffffff"/>
<path d="M209.426 92.0042C203.057 92.0042 196.282 91.3561 189.128 89.8774L188.792 89.7988C187.485 94.5908 186.402 108.164 205.734 129.008C230.222 155.412 248.789 189.423 245.274 217.6C245.274 217.6 302.733 212.518 306.898 136.778C306.898 136.778 305.481 97.2695 277.765 61.0401C272.77 67.1015 249.041 91.9722 209.426 92.0042Z" fill="#ffffff"/>
<defs>
<radialGradient id="paint0_radial" cx="0" cy="0" r="1" gradientUnits="userSpaceOnUse" gradientTransform="translate(145.009 136.878) rotate(0.065971) scale(45.385 45.5157)">
<stop stop-color="#4496D1"/>
<stop offset="1" stop-color="#14256D"/>
</radialGradient>
<linearGradient id="paint1_linear" x1="111.028" y1="10.9796" x2="246.796" y2="65.6512" gradientUnits="userSpaceOnUse">
<stop stop-color="#4496D1"/>
<stop offset="1" stop-color="#14256D"/>
</linearGradient>
<linearGradient id="paint2_linear" x1="51.881" y1="263.431" x2="31.3429" y2="118.52" gradientUnits="userSpaceOnUse">
<stop stop-color="#4496D1"/>
<stop offset="1" stop-color="#14256D"/>
</linearGradient>
<linearGradient id="paint3_linear" x1="300.448" y1="188.604" x2="185.218" y2="278.843" gradientUnits="userSpaceOnUse">
<stop stop-color="#4496D1"/>
<stop offset="1" stop-color="#14256D"/>
</linearGradient>
<linearGradient id="paint4_linear" x1="56.7209" y1="114.907" x2="117.749" y2="21.2604" gradientUnits="userSpaceOnUse">
<stop stop-color="#4496D1"/>
<stop offset="1" stop-color="#14256D"/>
</linearGradient>
<linearGradient id="paint5_linear" x1="172.173" y1="248.459" x2="62.6971" y2="259.619" gradientUnits="userSpaceOnUse">
<stop stop-color="#4496D1"/>
<stop offset="1" stop-color="#14256D"/>
</linearGradient>
<linearGradient id="paint6_linear" x1="242.661" y1="90.1001" x2="264.981" y2="202.765" gradientUnits="userSpaceOnUse">
<stop stop-color="#4496D1"/>
<stop offset="1" stop-color="#14256D"/>
</linearGradient>
</defs>
</svg>
